<svg width="375" height="870" viewBox="0 0 375 870" fill="none" xmlns="http://www.w3.org/2000/svg">
<path opacity="0.05" d="M-292.912 826.869C-236.943 787.185 -215.781 734.86 -229.426 669.896C-249.894 572.449 -227.503 510.242 -165.813 505.178C-104.122 500.115 -45.9035 570.765 -30.3189 655.334C-14.7343 739.903 71.9568 742.243 106.34 725.488C140.724 708.733 160.462 674.948 159.073 638.129C156.001 556.7 44.3267 491.819 46.9401 416.746C49.5534 341.674 141.376 314.104 198.979 381.715C201.817 385.046 204.708 388.181 207.644 391.126C266.674 450.34 344.026 432.844 379.396 388.923C440.731 312.762 412.761 231.366 314.35 176.138C166.196 89.0961 87.3425 -6.31081 77.7888 -110.083" stroke="url(#paint0_linear_102_148)" stroke-width="100" stroke-linecap="round"/>
<defs>
<linearGradient id="paint0_linear_102_148" x1="-292.912" y1="826.869" x2="395.432" y2="-105.791" gradientUnits="userSpaceOnUse">
<stop stop-color="#4E7577"/>
<stop offset="1" stop-color="#65D5FC"/>
<stop offset="1" stop-color="#23445B"/>
</linearGradient>
</defs>
</svg>
