<svg width="14" height="14" viewBox="0 0 14 14" fill="none" xmlns="http://www.w3.org/2000/svg">
<path d="M5.44954 10.9562L4.32312 10.654L4.7822 8.93958C4.09502 8.68614 3.45635 8.3168 2.89395 7.84758L1.63804 9.10408L0.812618 8.27867L2.06912 7.02275C1.35983 6.17328 0.883253 5.1542 0.686035 4.06525L1.83404 3.85583C2.27679 6.307 4.42112 8.16667 7.00004 8.16667C9.57837 8.16667 11.7233 6.307 12.166 3.85583L13.314 4.06467C13.1171 5.15376 12.6407 6.17305 11.9315 7.02275L13.1875 8.27867L12.362 9.10408L11.1061 7.84758C10.5437 8.3168 9.90505 8.68614 9.21787 8.93958L9.67695 10.6546L8.55054 10.9562L8.09087 9.24117C7.36891 9.36488 6.63116 9.36488 5.9092 9.24117L5.44954 10.9562Z" fill="black"/>
</svg>
